<svg width="224" height="224" viewBox="0 0 224 224" fill="none" xmlns="http://www.w3.org/2000/svg">
<path d="M198.659 29.897H176.545C176.516 29.897 176.492 29.9037 176.463 29.906V25.4462C176.463 18.1516 170.53 12.2186 163.235 12.2186C155.94 12.2186 150.007 18.1538 150.007 25.4462V29.897H125.09V25.4462C125.09 18.1516 119.157 12.2186 111.863 12.2186C104.568 12.2186 98.6352 18.1538 98.6352 25.4462V29.897H73.7158V25.4462C73.7158 18.1516 67.7828 12.2186 60.4883 12.2186C53.1937 12.2186 47.2607 18.1538 47.2607 25.4462V29.8993C47.2496 29.8993 47.2384 29.897 47.2272 29.897H25.1181C23.2677 29.897 21.7699 31.3948 21.7699 33.2452V206.784C21.7699 208.632 23.2677 210.132 25.1181 210.132H198.659C200.507 210.132 202.007 208.632 202.007 206.784V33.2452C202.007 31.3948 200.507 29.897 198.659 29.897ZM156.704 25.4462C156.704 21.8435 159.632 18.915 163.235 18.915C166.838 18.915 169.766 21.8435 169.766 25.4462V43.9214C169.766 47.5218 166.838 50.4526 163.235 50.4526C159.632 50.4526 156.704 47.5241 156.704 43.9214V25.4462ZM111.863 18.915C115.463 18.915 118.394 21.8435 118.394 25.4462V43.9214C118.394 47.5218 115.465 50.4526 111.863 50.4526C108.26 50.4526 105.332 47.5241 105.332 43.9214V33.5577C105.34 33.4528 105.363 33.3523 105.363 33.243C105.363 33.1336 105.34 33.0332 105.332 32.9282V25.4462C105.332 21.8435 108.26 18.915 111.863 18.915ZM53.9571 25.4462C53.9571 21.8435 56.8856 18.915 60.4883 18.915C64.0887 18.915 67.0194 21.8435 67.0194 25.4462V43.9214C67.0194 47.5218 64.0909 50.4526 60.4883 50.4526C56.8856 50.4526 53.9571 47.5241 53.9571 43.9214V25.4462ZM195.311 203.435H28.4663V36.5934H47.2272C47.2384 36.5934 47.2496 36.5912 47.2607 36.5912V43.9237C47.2607 51.2182 53.1959 57.1512 60.4883 57.1512C67.7806 57.1512 73.7158 51.2182 73.7158 43.9237V36.5956H98.6352V43.9237C98.6352 51.2182 104.57 57.1512 111.863 57.1512C119.155 57.1512 125.09 51.2182 125.09 43.9237V36.5956H150.007V43.9237C150.007 51.2182 155.94 57.1512 163.235 57.1512C170.53 57.1512 176.463 51.2182 176.463 43.9237V36.5845C176.492 36.5845 176.516 36.5934 176.545 36.5934H195.311V203.435Z" fill="url(#paint0_linear_16_2)"/>
<rect x="40" y="74" width="144" height="122" rx="6" fill="url(#paint1_linear_16_2)"/>
<path d="M41.5 102H183" stroke="black" stroke-opacity="0.76"/>
<path d="M40.5 136.5H183.5M40.5 169H183.5M40.5 102H183.5" stroke="black" stroke-opacity="0.76" stroke-width="13"/>
<path d="M73 74V197M111.5 74V197M150.5 74V197" stroke="black" stroke-opacity="0.76" stroke-width="10"/>
<rect x="78" y="106" width="30" height="26" fill="#E74144" fill-opacity="0.75"/>
<rect x="78.5" y="106.5" width="29" height="25" stroke="black" stroke-opacity="0.76"/>
<defs>
<linearGradient id="paint0_linear_16_2" x1="240.06" y1="6.76225" x2="21.1321" y2="220.619" gradientUnits="userSpaceOnUse">
<stop stop-color="#2493D8"/>
<stop offset="1" stop-color="#BCB9B9"/>
</linearGradient>
<linearGradient id="paint1_linear_16_2" x1="195.5" y1="65.5" x2="26.5" y2="204.5" gradientUnits="userSpaceOnUse">
<stop stop-color="#4FAEE9"/>
<stop offset="1" stop-color="#A9A9A9"/>
</linearGradient>
</defs>
</svg>
