<svg width="451" height="451" viewBox="0 0 451 451" fill="none" xmlns="http://www.w3.org/2000/svg">
<path fill-rule="evenodd" clip-rule="evenodd" d="M225.727 269.939C195.63 269.939 167.358 258.241 146.07 237.006C75.153 166.17 126.065 44.9899 225.727 44.9899C325.321 44.9899 376.368 166.102 305.384 237.006C284.096 258.241 255.824 269.939 225.727 269.939ZM336.923 268.814C436.607 169.274 364.789 0 225.659 0C86.8448 0 14.1936 169.274 113.9 268.814C138.928 293.805 180.041 308.473 202.569 313.129V361.02H134.986V406.01H202.569V451H247.624V406.01H315.206V361.02H247.624V313.129C292.679 308.473 311.872 293.805 336.923 268.814Z" fill="url(#paint0_linear_13_11)"/>
<defs>
<linearGradient id="paint0_linear_13_11" x1="383" y1="-7" x2="43.5" y2="455" gradientUnits="userSpaceOnUse">
<stop offset="0.25" stop-color="#FF9284"/>
<stop offset="1" stop-color="#FF0D92"/>
</linearGradient>
</defs>
</svg>
