<svg width="236" height="236" viewBox="0 0 236 236" fill="none" xmlns="http://www.w3.org/2000/svg">
<path d="M118 0C69.1259 0 29.5 39.6259 29.5 88.5C29.5 107.745 35.8093 125.405 46.2966 139.867C46.4846 140.214 46.5141 140.601 46.728 140.933L105.728 229.433C108.464 233.537 113.074 236 118 236C122.926 236 127.536 233.537 130.272 229.433L189.272 140.933C189.49 140.601 189.515 140.214 189.703 139.867C200.191 125.405 206.5 107.745 206.5 88.5C206.5 39.6259 166.874 0 118 0ZM118 118C101.709 118 88.5 104.791 88.5 88.5C88.5 72.2086 101.709 59 118 59C134.291 59 147.5 72.2086 147.5 88.5C147.5 104.791 134.291 118 118 118Z" fill="url(#paint0_linear_18_13)"/>
<defs>
<linearGradient id="paint0_linear_18_13" x1="239.5" y1="-21.5" x2="15" y2="228" gradientUnits="userSpaceOnUse">
<stop stop-color="#2493D8"/>
<stop offset="1" stop-color="#BCB9B9"/>
</linearGradient>
</defs>
</svg>
