<svg width="409" height="409" viewBox="0 0 409 409" fill="none" xmlns="http://www.w3.org/2000/svg">
<path d="M352.217 54.2604H56.7831C25.4243 54.2604 0 79.6847 0 111.043V297.956C0 329.315 25.4243 354.74 56.7831 354.74H352.217C383.575 354.74 409 329.315 409 297.956V111.043C409 79.6847 383.575 54.2604 352.217 54.2604ZM142.324 256.999L62.8087 324.835C57.2001 329.622 48.7685 328.957 43.9827 323.342C39.1961 317.734 39.8615 309.302 45.4765 304.516L124.992 236.68C130.6 231.893 139.03 232.559 143.817 238.174C148.604 243.782 147.938 252.213 142.324 256.999ZM204.5 231.21C193.864 231.183 183.555 227.649 175.495 220.679L175.501 220.685L175.475 220.666C175.482 220.672 175.489 220.672 175.495 220.679L53.4911 114.787C47.9153 109.947 47.3218 101.517 52.1539 95.948C56.9924 90.3722 65.424 89.7787 70.9919 94.6108L193.03 200.529C195.638 202.85 199.935 204.526 204.5 204.5C209.058 204.514 213.283 202.883 216.035 200.483L216.094 200.432L338.007 94.6116C343.576 89.7795 352.008 90.373 356.846 95.9488C361.677 101.517 361.085 109.948 355.509 114.788L233.472 220.711C225.438 227.609 215.142 231.196 204.5 231.21ZM365.023 323.342C360.236 328.957 351.805 329.622 346.198 324.835L266.682 256.999C261.068 252.212 260.403 243.782 265.189 238.174C269.975 232.559 278.407 231.894 284.015 236.68L363.53 304.516C369.144 309.302 369.809 317.734 365.023 323.342Z" fill="url(#paint0_linear_18_2)"/>
<defs>
<linearGradient id="paint0_linear_18_2" x1="447.5" y1="-3.5" x2="-50.5" y2="379" gradientUnits="userSpaceOnUse">
<stop stop-color="#2493D8"/>
<stop offset="1" stop-color="#BCB9B9"/>
</linearGradient>
</defs>
</svg>
