<svg width="401" height="401" viewBox="0 0 401 401" fill="none" xmlns="http://www.w3.org/2000/svg">
<path d="M259.918 243.068L252.308 251.079C252.308 251.079 234.219 270.124 184.846 218.142C135.473 166.162 153.561 147.118 153.561 147.118L158.354 142.073C170.159 129.644 171.272 109.69 160.972 95.1222L139.903 65.3231C127.155 47.2929 102.522 44.9112 87.9101 60.2944L61.6847 87.9049C54.4396 95.5326 49.5845 105.42 50.1733 116.389C51.6796 144.451 63.6706 204.827 130.582 275.273C201.538 349.976 268.115 352.945 295.342 350.258C303.953 349.408 311.442 344.765 317.477 338.411L341.213 313.422C357.234 296.555 352.716 267.637 332.217 255.838L300.296 237.464C286.835 229.716 270.438 231.992 259.918 243.068Z" fill="url(#paint0_linear_18_7)"/>
<path d="M221.544 31.4088C222.65 24.577 229.108 19.9426 235.94 21.0485C236.363 21.1295 237.725 21.3838 238.436 21.5426C239.863 21.8602 241.851 22.3489 244.331 23.0712C249.29 24.5155 256.217 26.8949 264.531 30.7066C281.178 38.3383 303.33 51.6882 326.317 74.6756C349.304 97.6629 362.654 119.815 370.285 136.461C374.098 144.776 376.477 151.703 377.921 156.662C378.643 159.141 379.132 161.13 379.45 162.556C379.608 163.268 379.725 163.841 379.806 164.264L379.902 164.785C381.007 171.616 376.415 178.343 369.583 179.449C362.771 180.552 356.354 175.939 355.221 169.14C355.186 168.956 355.089 168.467 354.987 168.004C354.78 167.078 354.424 165.611 353.859 163.67C352.728 159.788 350.765 154.018 347.503 146.906C340.99 132.699 329.278 113.08 308.595 92.3974C287.913 71.7148 268.294 60.0025 254.087 53.4891C246.974 50.2283 241.205 48.2645 237.322 47.1337C235.382 46.5685 232.943 46.0086 232.017 45.8026C225.217 44.6692 220.441 38.2212 221.544 31.4088Z" fill="url(#paint1_linear_18_7)"/>
<path fill-rule="evenodd" clip-rule="evenodd" d="M225.324 89.0437C227.225 82.3891 234.161 78.5358 240.816 80.4371L237.374 92.4863C240.816 80.4371 240.816 80.4371 240.816 80.4371L240.841 80.4441L240.866 80.4514L240.921 80.4677L241.051 80.5064L241.382 80.6093C241.633 80.6899 241.948 80.7948 242.323 80.928C243.073 81.1943 244.065 81.5729 245.282 82.0942C247.716 83.1375 251.041 84.7485 255.128 87.1664C263.305 92.0064 274.469 100.046 287.586 113.162C300.702 126.277 308.74 137.442 313.58 145.62C315.998 149.705 317.609 153.031 318.653 155.465C319.174 156.682 319.554 157.674 319.819 158.424C319.953 158.799 320.057 159.114 320.138 159.366L320.24 159.696L320.279 159.826L320.295 159.881L320.302 159.907C320.302 159.907 320.31 159.931 308.26 163.374L320.31 159.931C322.212 166.586 318.357 173.521 311.704 175.422C305.106 177.307 298.23 173.536 296.26 166.985L296.199 166.805C296.11 166.554 295.926 166.06 295.617 165.338C294.999 163.895 293.878 161.536 292.013 158.385C288.287 152.09 281.559 142.579 269.863 130.884C258.169 119.189 248.657 112.46 242.363 108.735C239.212 106.87 236.852 105.749 235.409 105.13C234.687 104.821 234.192 104.637 233.942 104.548L233.761 104.486C227.212 102.516 223.439 95.6417 225.324 89.0437Z" fill="url(#paint2_linear_18_7)"/>
<defs>
<linearGradient id="paint0_linear_18_7" x1="344.434" y1="50.6851" x2="14.0511" y2="358.784" gradientUnits="userSpaceOnUse">
<stop stop-color="#2493D8"/>
<stop offset="1" stop-color="#BCB9B9"/>
</linearGradient>
<linearGradient id="paint1_linear_18_7" x1="376.668" y1="21.181" x2="202.305" y2="183.736" gradientUnits="userSpaceOnUse">
<stop stop-color="#2493D8"/>
<stop offset="1" stop-color="#BCB9B9"/>
</linearGradient>
<linearGradient id="paint2_linear_18_7" x1="318.741" y1="80.1304" x2="213.33" y2="178.433" gradientUnits="userSpaceOnUse">
<stop stop-color="#2493D8"/>
<stop offset="1" stop-color="#BCB9B9"/>
</linearGradient>
</defs>
</svg>
