<svg width="248" height="180" viewBox="0 0 248 180" fill="none" xmlns="http://www.w3.org/2000/svg">
<path d="M211.163 105.27C226.91 105.27 239.678 92.51 239.678 76.763C239.678 61.016 226.91 48.2474 211.163 48.2474C195.42 48.2474 182.651 61.016 182.651 76.763C182.652 92.51 195.42 105.27 211.163 105.27Z" fill="url(#paint0_linear_37_3)"/>
<path d="M247.674 132.747C246.403 125.112 240.093 114.427 235.316 109.653C234.686 109.02 231.874 108.874 231.115 109.345C225.307 112.917 218.485 115.019 211.163 115.019C203.85 115.019 197.027 112.917 191.219 109.345C190.456 108.874 187.648 109.02 187.019 109.653C185.683 110.988 184.226 112.766 182.806 114.828C186.649 122.064 189.697 129.751 190.797 136.371C191.897 143.007 191.54 149.289 189.762 155.016C196.077 157.301 203.65 158.304 211.163 158.304C230.758 158.304 250.811 151.509 247.674 132.747Z" fill="url(#paint1_linear_37_3)"/>
<path d="M123.267 93.241C148.787 93.241 169.478 72.5504 169.478 47.0306C169.478 21.5186 148.787 0.828018 123.267 0.828018C97.7512 0.828018 77.0684 21.5186 77.0684 47.0306C77.0684 72.5504 97.7507 93.241 123.267 93.241Z" fill="url(#paint2_linear_37_3)"/>
<path d="M162.396 100.319C161.393 99.3203 156.84 99.0651 155.602 99.8314C146.181 105.627 135.127 109.02 123.267 109.02C111.416 109.02 100.356 105.627 90.9409 99.8314C89.7033 99.0646 85.1497 99.3203 84.1471 100.319C76.3869 108.071 66.1593 125.401 64.1017 137.755C59.0284 168.186 91.5338 179.173 123.267 179.173C155.009 179.173 187.514 168.186 182.441 137.755C180.383 125.401 170.156 108.071 162.396 100.319Z" fill="url(#paint3_linear_37_3)"/>
<path d="M36.8362 105.27C52.5794 105.27 65.3475 92.51 65.3475 76.763C65.3475 61.016 52.5794 48.2474 36.8362 48.2474C21.0887 48.2474 8.32059 61.016 8.32059 76.763C8.32059 92.51 21.0887 105.27 36.8362 105.27Z" fill="url(#paint4_linear_37_3)"/>
<path d="M55.7487 136.371C56.9179 129.418 60.217 121.232 64.3531 113.663C63.2003 112.088 62.048 110.717 60.9843 109.653C60.3551 109.02 57.5467 108.874 56.7838 109.345C50.9756 112.917 44.1532 115.019 36.8362 115.019C29.5183 115.019 22.6915 112.917 16.8882 109.345C16.1287 108.874 13.3126 109.02 12.6834 109.653C7.89435 114.426 1.59989 125.112 0.325017 132.747C-2.80792 151.509 17.2413 158.303 36.8362 158.303C43.8292 158.303 50.8909 157.442 56.9179 155.474C55.0187 149.63 54.6167 143.201 55.7487 136.371Z" fill="url(#paint5_linear_37_3)"/>
<defs>
<linearGradient id="paint0_linear_37_3" x1="194.839" y1="49.2615" x2="242.506" y2="89.755" gradientUnits="userSpaceOnUse">
<stop stop-color="#8DFFB9"/>
<stop offset="1" stop-color="#511C9B"/>
</linearGradient>
<linearGradient id="paint1_linear_37_3" x1="196.738" y1="109.944" x2="238.158" y2="156.531" gradientUnits="userSpaceOnUse">
<stop stop-color="#8DFFB9"/>
<stop offset="1" stop-color="#511C9B"/>
</linearGradient>
<linearGradient id="paint2_linear_37_3" x1="96.8173" y1="2.47164" x2="174.067" y2="68.0882" gradientUnits="userSpaceOnUse">
<stop stop-color="#8DFFB9"/>
<stop offset="1" stop-color="#511C9B"/>
</linearGradient>
<linearGradient id="paint3_linear_37_3" x1="89.0907" y1="100.803" x2="154.779" y2="184.297" gradientUnits="userSpaceOnUse">
<stop stop-color="#8DFFB9"/>
<stop offset="1" stop-color="#511C9B"/>
</linearGradient>
<linearGradient id="paint4_linear_37_3" x1="20.5078" y1="49.2615" x2="68.1747" y2="89.755" gradientUnits="userSpaceOnUse">
<stop stop-color="#8DFFB9"/>
<stop offset="1" stop-color="#511C9B"/>
</linearGradient>
<linearGradient id="paint5_linear_37_3" x1="13.7527" y1="109.943" x2="55.2315" y2="155.996" gradientUnits="userSpaceOnUse">
<stop stop-color="#8DFFB9"/>
<stop offset="1" stop-color="#511C9B"/>
</linearGradient>
</defs>
</svg>

